<?xml version="1.0" encoding="utf-8"?>
<!-- Generator: Adobe Illustrator 16.2.0, SVG Export Plug-In . SVG Version: 6.00 Build 0)  -->
<!DOCTYPE svg PUBLIC "-//W3C//DTD SVG 1.1//EN" "http://www.w3.org/Graphics/SVG/1.1/DTD/svg11.dtd">
<svg version="1.1" id="Layer_1" xmlns="http://www.w3.org/2000/svg" xmlns:xlink="http://www.w3.org/1999/xlink" x="0px" y="0px"
	 width="128px" height="128px" viewBox="0 0 128 128" enable-background="new 0 0 128 128" xml:space="preserve">
<path fill="#FFFFFF" d="M89.5,43.5L88,45l-6-3v3l-9-4.5l-1.5,3c0,0-21-10.5-28.5-9c-3.741,2.807-6.316,10.862-7.725,16.528
	C34.788,57.419,34,68.23,34,70.5c0,5.143,5.622,19.536,8.684,25.658C45.196,101.186,56.199,109.5,64,109.5
	s18.803-8.314,21.316-13.342C88.377,90.036,94,75.643,94,70.5c0-2.046-0.641-11.031-1.125-17.464C91.354,48.138,89.5,43.5,89.5,43.5
	z M58,82.5h12c0.828,0,1.5,0.672,1.5,1.5s-0.672,1.5-1.5,1.5H58c-0.828,0-1.5-0.672-1.5-1.5S57.172,82.5,58,82.5z M47.5,70.5
	c-2.485,0-4.5-2.015-4.5-4.5s2.015-4.5,4.5-4.5S52,63.515,52,66S49.985,70.5,47.5,70.5z M46.126,55.499
	c-3.474,0-5.951,1.65-7.795,5.192c-0.267,0.514-0.79,0.808-1.332,0.808c-0.233,0-0.47-0.054-0.691-0.169
	c-0.735-0.382-1.02-1.289-0.637-2.023C38.022,54.79,41.54,52.5,46.126,52.5c3.217,0,5.966,1.114,8.403,3.407
	c0.602,0.568,0.63,1.517,0.063,2.121c-0.567,0.603-1.517,0.631-2.12,0.063C50.593,56.322,48.577,55.499,46.126,55.499z M73,99H55
	c-0.828,0-1.5-0.672-1.5-1.5S54.172,96,55,96h18c0.828,0,1.5,0.672,1.5,1.5S73.828,99,73,99z M80.5,70.5c-2.485,0-4.5-2.015-4.5-4.5
	s2.015-4.5,4.5-4.5S85,63.515,85,66S82.985,70.5,80.5,70.5z M92.105,61.013C91.811,61.336,91.404,61.5,91,61.5
	c-0.361,0-0.727-0.13-1.016-0.394c-2.465-2.26-5.116-3.356-8.11-3.356c-2.524,0-5.095,0.996-6.521,1.983
	c-0.682,0.473-1.615,0.302-2.088-0.379c-0.472-0.681-0.302-1.615,0.381-2.087c1.676-1.162,4.838-2.517,8.229-2.517
	c3.729,0,7.137,1.394,10.139,4.143C92.624,59.453,92.665,60.403,92.105,61.013z M64,0C28.654,0,0,28.653,0,64
	c0,35.346,28.654,64,64,64c35.346,0,64-28.654,64-64C128,28.653,99.346,0,64,0z M98.342,79.193
	c-2.132,7.293-5.787,15.906-7.658,19.647c-1.75,3.5-5.776,7.575-10.77,10.905c-3.225,2.15-9.577,5.754-15.914,5.754
	s-12.69-3.604-15.914-5.755c-4.994-3.33-9.02-7.405-10.77-10.905c-1.87-3.742-5.526-12.355-7.659-19.646
	C26.99,77.975,25,73.204,25,67.5c0-5.123,1.606-9.495,3.865-11.216c0.3-4.108,0.577-7.66,0.635-8.401V28.5l3,1.5L40,19.5l1.5,3
	l22.5-12v3h9L71.5,15L88,21l-1.5,1.5L97,27l-3,1.5l4.5,4.5h-2.375c0.904,2.653,1.115,6.151,2.342,14.767l0.023-0.001
	c0.027,0.346,0.322,4.112,0.644,8.518C101.393,58.005,103,62.376,103,67.5C103,73.203,101.01,77.975,98.342,79.193z"/>
</svg>
