<?xml version="1.0" encoding="utf-8"?>
<!-- Generator: Adobe Illustrator 16.2.1, SVG Export Plug-In . SVG Version: 6.00 Build 0)  -->
<!DOCTYPE svg PUBLIC "-//W3C//DTD SVG 1.1//EN" "http://www.w3.org/Graphics/SVG/1.1/DTD/svg11.dtd">
<svg version="1.1" id="Layer_1" xmlns="http://www.w3.org/2000/svg" xmlns:xlink="http://www.w3.org/1999/xlink" x="0px" y="0px"
	 width="512px" height="256px" viewBox="0 64.5 512 256" enable-background="new 0 64.5 512 256" xml:space="preserve">
<path fill="#444444" d="M416,352H96V32h320V352z M315.925,135.997l-59.842,93.122l-60.161-93.122h-51.361V248h30.24v-90.243
	L234.643,248h41.601l59.201-89.763L335.925,248h31.521V135.997H315.925z M376.576,154.111h8.703c0-1.194,0.117-2.4,0.353-3.616
	c0.234-1.216,0.629-2.325,1.185-3.328c0.555-1.002,1.291-1.813,2.209-2.432c0.916-0.618,2.035-0.928,3.358-0.928
	c1.962,0,3.573,0.608,4.832,1.824c1.258,1.216,1.89,2.912,1.89,5.088c0,1.366-0.312,2.582-0.93,3.648
	c-0.619,1.067-1.387,2.027-2.304,2.88c-0.918,0.854-1.931,1.632-3.04,2.336s-2.154,1.398-3.136,2.08
	c-1.921,1.323-3.744,2.624-5.474,3.904c-1.728,1.28-3.23,2.678-4.512,4.192c-1.279,1.515-2.294,3.232-3.04,5.152
	c-0.747,1.92-1.12,4.182-1.12,6.784h32.896v-7.808h-21.186c1.109-1.536,2.391-2.88,3.842-4.032c1.449-1.152,2.942-2.229,4.479-3.232
	c1.536-1.002,3.061-2.016,4.576-3.04c1.514-1.024,2.869-2.165,4.062-3.424c1.194-1.258,2.154-2.698,2.881-4.32
	c0.726-1.621,1.089-3.562,1.089-5.824c0-2.176-0.416-4.138-1.248-5.888c-0.832-1.749-1.952-3.221-3.36-4.416
	c-1.408-1.194-3.04-2.112-4.896-2.752c-1.856-0.64-3.81-0.96-5.856-0.96c-2.688,0-5.066,0.459-7.136,1.376
	c-2.07,0.918-3.787,2.198-5.152,3.84c-1.366,1.643-2.39,3.563-3.071,5.76C376.789,149.173,376.49,151.551,376.576,154.111z"/>
</svg>
