<?xml version="1.0" encoding="utf-8"?>
<!-- Generator: Adobe Illustrator 16.2.1, SVG Export Plug-In . SVG Version: 6.00 Build 0)  -->
<!DOCTYPE svg PUBLIC "-//W3C//DTD SVG 1.1//EN" "http://www.w3.org/Graphics/SVG/1.1/DTD/svg11.dtd">
<svg version="1.1" id="Layer_1" xmlns="http://www.w3.org/2000/svg" xmlns:xlink="http://www.w3.org/1999/xlink" x="0px" y="0px"
	 width="512px" height="256px" viewBox="0 64.5 512 256" enable-background="new 0 64.5 512 256" xml:space="preserve">
<path fill="#444444" d="M255.999,71.997c66.168,0,120,53.832,120,120c0,66.167-53.832,119.999-120,119.999s-120-53.832-120-119.999
	C135.999,125.829,189.831,71.997,255.999,71.997 M255.999,63.997c-70.691,0-128,57.309-128,128c0,70.69,57.309,127.999,128,127.999
	c70.69,0,128-57.309,128-127.999C383.999,121.306,326.689,63.997,255.999,63.997L255.999,63.997z M296.077,181.056l29.521,22.139
	l4.799-6.397L295.92,170.94l-39.922,31.933l-39.922-31.933l-34.477,25.858l4.797,6.397l29.523-22.139l40.078,32.065L296.077,181.056
	z"/>
</svg>
