<?xml version="1.0" encoding="utf-8"?>
<!-- Generator: Adobe Illustrator 16.2.1, SVG Export Plug-In . SVG Version: 6.00 Build 0)  -->
<!DOCTYPE svg PUBLIC "-//W3C//DTD SVG 1.1//EN" "http://www.w3.org/Graphics/SVG/1.1/DTD/svg11.dtd">
<svg version="1.1" id="Layer_1" xmlns="http://www.w3.org/2000/svg" xmlns:xlink="http://www.w3.org/1999/xlink" x="0px" y="0px"
	 width="512px" height="256px" viewBox="0 64.5 512 256" enable-background="new 0 64.5 512 256" xml:space="preserve">
<g>
	<path fill="#444444" d="M75.387,211.826h-8.771v-33.192L43.61,211.826H31.722L8.726,178.634v33.192H0v-39.65h14.332l23.503,34.213
		l23.568-34.213h13.983L75.387,211.826L75.387,211.826z"/>
	<path fill="#444444" d="M146.254,172.176c11.098,0,14.611,1.587,17.441,4.419c2.159,2.151,3.007,5.382,3.007,8.726
		c0,3.338-0.848,6.397-3.228,8.777c-2.158,2.152-5.44,3.961-13.032,4.473l21.297,13.084v0.172h-13.254l-20.958-13.141h-15.689
		v13.141h-8.781v-39.65H146.254z M121.838,191.778h24.526c6.171,0,8.836-0.853,10.191-2.213c0.914-0.905,1.421-2.095,1.421-4.021
		c0-1.81-0.507-3.171-1.531-4.19c-1.355-1.358-3.679-2.039-10.025-2.039h-24.582V191.778z"/>
	<path fill="#444444" d="M244.682,203.387c0.793-0.794,1.079-1.758,1.079-2.771c0-1.189-0.286-2.1-0.959-2.776
		c-1.244-1.245-3.568-1.758-17.562-2.495c-15.8-0.793-20.616-2.099-23.337-4.811c-1.586-1.586-2.259-3.799-2.259-6.628
		c0-2.891,0.618-5.609,2.776-7.76c2.768-2.777,8.209-4.703,22.137-4.703c11.05,0,19.38,1.587,24.647,3.682v7.42
		c-6.006-2.548-15.977-4.418-24.647-4.418c-10.812,0-13.928,1.019-15.229,2.321c-0.683,0.682-0.969,1.588-0.969,2.664
		c0,1.021,0.286,1.869,0.849,2.434c1.189,1.189,3.854,1.872,16.77,2.494c16.704,0.849,21.354,2.098,24.075,4.816
		c1.586,1.58,2.434,4.016,2.434,6.853c0,2.946-0.627,5.663-2.775,7.817c-2.833,2.832-8.439,5.035-23.281,5.035
		c-10.985,0-21.749-1.752-27.865-4.418v-7.416c5.893,2.832,18.411,5.155,27.865,5.155
		C239.534,205.881,243.105,204.973,244.682,203.387z"/>
	<path fill="#444444" d="M327.991,172.176v21.244c0,6.286-0.959,10.309-4.417,13.762c-3.109,3.118-8.495,5.156-16.936,5.156
		c-7.416,0-15.008-1.701-20.507-4.137v-7.762c5.729,2.775,13.201,4.812,20.562,4.812c4.308,0,8.045-1.072,9.972-2.996
		c1.817-1.816,2.545-4.308,2.545-8.615v-21.465H327.991L327.991,172.176z"/>
	<path fill="#444444" d="M359.473,211.654l24.463-19.765l-24.009-19.543v-0.17h12.404l18.521,15.58l18.744-15.58h11.954v0.17
		l-24.075,19.431l24.526,19.877v0.171h-12.405l-18.975-15.916l-19.204,15.916h-11.946v-0.171H359.473z"/>
	<path fill="#444444" d="M503.274,204.18v-32.003H512v39.65h-12.295l-36.251-32.567v32.567h-8.728v-39.65h12.926L503.274,204.18z"/>
</g>
</svg>
