<?xml version="1.0" encoding="utf-8"?>
<!-- Generator: Adobe Illustrator 16.2.1, SVG Export Plug-In . SVG Version: 6.00 Build 0)  -->
<!DOCTYPE svg PUBLIC "-//W3C//DTD SVG 1.1//EN" "http://www.w3.org/Graphics/SVG/1.1/DTD/svg11.dtd">
<svg version="1.1" id="Layer_1" xmlns="http://www.w3.org/2000/svg" xmlns:xlink="http://www.w3.org/1999/xlink" x="0px" y="0px"
	 width="512px" height="256px" viewBox="0 64.5 512 256" enable-background="new 0 64.5 512 256" xml:space="preserve">
<path fill="#444444" d="M182.5,96c-1.096,0-2.191,0.3-3.156,0.896c-1.77,1.092-2.844,3.023-2.844,5.104v180
	c0,2.08,1.074,4.012,2.844,5.104c0.965,0.597,2.061,0.896,3.156,0.896c0.916,0,1.836-0.211,2.684-0.633l180-90
	c2.034-1.018,3.316-3.094,3.316-5.367c0-2.273-1.283-4.351-3.316-5.367l-180-90C184.336,96.211,183.416,96,182.5,96L182.5,96z"/>
</svg>
