<?xml version="1.0" encoding="utf-8"?>
<!-- Generator: Adobe Illustrator 16.2.1, SVG Export Plug-In . SVG Version: 6.00 Build 0)  -->
<!DOCTYPE svg PUBLIC "-//W3C//DTD SVG 1.1//EN" "http://www.w3.org/Graphics/SVG/1.1/DTD/svg11.dtd">
<svg version="1.1" id="Layer_1" xmlns="http://www.w3.org/2000/svg" xmlns:xlink="http://www.w3.org/1999/xlink" x="0px" y="0px"
	 width="512px" height="256px" viewBox="0 64.5 512 256" enable-background="new 0 64.5 512 256" xml:space="preserve">
<g>
	<path fill="#444444" d="M212.261,320h-49.972V64c0,0,90.521,0,89.703,0c64.717,0,99.122,30.72,99.122,77.824
		c0,36.454-20.479,61.849-55.296,73.728L362.993,320h-56.933l-56.937-93.799l-36.863,2.458L212.261,320L212.261,320z
		 M249.124,188.519c30.722-1.639,50.792-15.565,50.792-43.418c0-26.624-20.071-39.321-55.707-39.321c-0.409,0-32.358,0-32.358,0
		v83.558L249.124,188.519z"/>
</g>
</svg>
