<?xml version="1.0" encoding="utf-8"?>
<!-- Generator: Adobe Illustrator 16.2.1, SVG Export Plug-In . SVG Version: 6.00 Build 0)  -->
<!DOCTYPE svg PUBLIC "-//W3C//DTD SVG 1.1//EN" "http://www.w3.org/Graphics/SVG/1.1/DTD/svg11.dtd">
<svg version="1.1" id="Layer_1" xmlns="http://www.w3.org/2000/svg" xmlns:xlink="http://www.w3.org/1999/xlink" x="0px" y="0px"
	 width="512px" height="384px" viewBox="0 0 512 384" enable-background="new 0 0 512 384" xml:space="preserve">
<g>
	<ellipse opacity="0.1" fill="#444444" enable-background="new    " cx="256" cy="303.998" rx="96" ry="15.998"/>
	<g>
		<path fill="#CCCCCC" d="M352,96.001c0-8.838-7.164-16-16-16H208.501c0,0,16.003-5.338,14.499-10
			c-1.909-5.953-19.331,1.498-33.667,7.5c3.836-4.168,6.836-8.336,6.336-13.502c-10.137,2.572-18.729,11.41-22.688,16.293
			c-0.055,0.014-0.108,0.016-0.16,0.025c1.188-2.309,4.117-8.234,3.349-11.318c-6.332,3.334-16.168,11.002-16.168,27.002V232
			c0,16-16,24-32,8c8,23.998,24,32,48,32h35.345l-3.267,22.867c-0.625,4.373,2.414,8.426,6.789,9.051
			c0.383,0.055,0.766,0.08,1.141,0.08c3.914,0,7.339-2.877,7.909-6.867l3.59-25.131h54.242l6.484,25.938
			c0.914,3.638,4.172,6.062,7.758,6.062c0.641,0,1.297-0.078,1.945-0.235c4.285-1.074,6.891-5.419,5.824-9.705L298.242,272H336
			c8.836,0,16-7.162,16-16V96.001z"/>
		<circle fill="#999999" cx="208" cy="143.999" r="16"/>
		<circle fill="#999999" cx="304" cy="143.999" r="16"/>
		<path fill="#888888" d="M383.031,120.444c-0.5-1.986-1.84-3.654-3.672-4.572c-17.509-8.754-38.613-8.754-51.224-8.754
			c-3.637,0-45.395,2.414-53.051,10.064c-1.312,1.318-2.055,3.104-2.055,4.961c0,0.811,0.038,1.875,0.116,3.119
			c-5.062-1.062-11.491-2.113-17.147-2.113c-5.655,0-12.086,1.051-17.146,2.113c0.074-1.244,0.113-2.308,0.113-3.119
			c0-1.857-0.738-3.643-2.055-4.961c-7.656-7.65-49.413-10.064-53.046-10.064c-12.609,0-33.72,0-51.228,8.754
			c-1.828,0.918-3.172,2.586-3.668,4.572c-4.512,18.052,7.816,52.708,13.863,58.759c0.535,0.531,1.148,0.973,1.824,1.316
			c8.371,4.18,24.516,4.742,39.207,4.742c16.281,0,36.109-1.146,45.029-10.066c0.531-0.535,0.978-1.152,1.312-1.824
			c2.969-5.936,5.602-20.863,7.188-33.387c4.47-1.109,12.375-2.812,18.603-2.812c6.229,0,14.138,1.703,18.603,2.812
			c1.586,12.523,4.219,27.451,7.188,33.387c0.336,0.672,0.781,1.289,1.312,1.824c8.922,8.92,28.754,10.066,45.034,10.066
			c14.691,0,30.832-0.562,39.203-4.742c0.676-0.344,1.289-0.785,1.824-1.316C375.211,173.153,387.539,138.497,383.031,120.444z
			 M218.148,165.981c-3.069,2.23-11.444,5.254-34.28,5.254c-15.892,0-26.484-0.902-31.552-2.691
			c-3.34-5.719-11.405-28.418-10.241-41.566c14.051-5.832,31.229-5.832,41.793-5.832c10.883,0,32.539,2.965,40.866,5.359
			C223.906,137.358,220.79,158.959,218.148,165.981z M359.684,168.543c-5.062,1.789-15.659,2.691-31.547,2.691
			c-22.84,0-31.215-3.023-34.285-5.254c-2.637-7.021-5.758-28.623-6.586-39.477c8.328-2.394,29.984-5.359,40.871-5.359
			c10.562,0,27.738,0,41.793,5.832C371.09,140.125,363.023,162.825,359.684,168.543z"/>
	</g>
</g>
</svg>
