<?xml version="1.0" encoding="utf-8"?>
<!-- Generator: Adobe Illustrator 16.2.1, SVG Export Plug-In . SVG Version: 6.00 Build 0)  -->
<!DOCTYPE svg PUBLIC "-//W3C//DTD SVG 1.1//EN" "http://www.w3.org/Graphics/SVG/1.1/DTD/svg11.dtd">
<svg version="1.1" id="Layer_1" xmlns="http://www.w3.org/2000/svg" xmlns:xlink="http://www.w3.org/1999/xlink" x="0px" y="0px"
	 width="512px" height="384px" viewBox="0 0 512 384" enable-background="new 0 0 512 384" xml:space="preserve">
<path fill="#444444" d="M256,64c-70.692,0-128,57.311-128,128c0,70.695,57.309,128,128,128c70.695,0,128-57.305,128-128
	C384,121.311,326.695,64,256,64z M256,304c-6.028,0-11.981-0.482-17.821-1.408c-5.203-5.545-10.125-13.412-14.449-23.287
	c-3.801-8.697-6.965-18.492-9.434-29.088C227.492,248.764,241.547,248,256,248s28.511,0.764,41.707,2.217
	c-2.469,10.596-5.633,20.391-9.438,29.088c-4.32,9.875-9.246,17.742-14.445,23.287C267.984,303.518,262.031,304,256,304z M256,240
	c-15.223,0-29.821,0.836-43.36,2.367c-2.801-14.43-4.375-30.109-4.598-46.367h95.918c-0.228,16.258-1.797,31.938-4.603,46.367
	C285.824,240.836,271.227,240,256,240z M256,80c6.031,0,11.984,0.482,17.824,1.408c5.199,5.545,10.125,13.412,14.445,23.287
	c3.805,8.697,6.969,18.492,9.438,29.088C284.512,135.236,270.453,136,256,136c-14.454,0-28.508-0.764-41.704-2.217
	c2.469-10.596,5.633-20.391,9.434-29.088c4.324-9.875,9.246-17.742,14.449-23.287C244.02,80.482,249.973,80,256,80z M256,144
	c15.227,0,29.824-0.836,43.359-2.367c2.805,14.43,4.375,30.109,4.602,46.367h-95.918c0.223-16.258,1.797-31.938,4.598-46.367
	C226.18,143.164,240.777,144,256,144z M311.973,188c-0.227-16.805-1.871-32.789-4.668-47.359
	c16.305-2.242,30.816-5.518,42.711-9.564c10.988,16.885,17.191,36.424,17.906,56.924L311.973,188L311.973,188z M200.031,188h-55.953
	c0.715-20.5,6.918-40.039,17.91-56.924c11.891,4.047,26.406,7.322,42.707,9.564C201.898,155.211,200.258,171.195,200.031,188z
	 M200.031,196c0.227,16.805,1.867,32.789,4.664,47.359c-16.301,2.242-30.816,5.518-42.707,9.562
	c-10.992-16.885-17.195-36.424-17.91-56.924L200.031,196L200.031,196z M311.973,196h55.949c-0.715,20.5-6.918,40.039-17.906,56.924
	c-11.895-4.047-26.406-7.322-42.711-9.564C310.102,228.789,311.746,212.805,311.973,196z M345.199,124.248
	c-0.418,0.135-0.824,0.268-1.246,0.4c-11.176,3.5-24.16,6.234-38.293,8.15c-4.547-19.879-11.309-36.697-19.539-48.721
	c18.379,5.096,35.223,14.873,49.074,28.727C338.812,116.422,342.148,120.248,345.199,124.248z M225.879,84.078
	c-8.23,12.023-14.992,28.842-19.535,48.721c-14.137-1.916-27.117-4.65-38.293-8.15c-0.426-0.133-0.832-0.266-1.246-0.4
	c3.051-4,6.383-7.826,10-11.443C190.656,98.951,207.504,89.174,225.879,84.078z M166.805,259.752c0.414-0.135,0.82-0.268,1.246-0.4
	c11.176-3.5,24.156-6.232,38.293-8.148c4.543,19.879,11.305,36.695,19.535,48.721c-18.375-5.094-35.223-14.875-49.074-28.727
	C173.188,267.578,169.855,263.752,166.805,259.752z M286.121,299.922c8.23-12.023,14.992-28.842,19.539-48.721
	c14.133,1.916,27.117,4.65,38.293,8.15c0.422,0.133,0.828,0.266,1.246,0.398c-3.051,4-6.387,7.826-10.004,11.441
	C321.344,285.047,304.5,294.828,286.121,299.922z"/>
</svg>
